<?xml version="1.0" encoding="utf-8" standalone="no"?>
<!DOCTYPE svg PUBLIC "-//W3C//DTD SVG 1.1//EN"
  "http://www.w3.org/Graphics/SVG/1.1/DTD/svg11.dtd">
<svg xmlns:xlink="http://www.w3.org/1999/xlink" width="452.345311pt" height="265.867005pt" viewBox="0 0 452.345311 265.867005" xmlns="http://www.w3.org/2000/svg" version="1.1">
 <metadata>
  <rdf:RDF xmlns:dc="http://purl.org/dc/elements/1.1/" xmlns:cc="http://creativecommons.org/ns#" xmlns:rdf="http://www.w3.org/1999/02/22-rdf-syntax-ns#">
   <cc:Work>
    <dc:type rdf:resource="http://purl.org/dc/dcmitype/StillImage"/>
    <dc:date>2026-06-24T11:24:21.536418</dc:date>
    <dc:format>image/svg+xml</dc:format>
    <dc:creator>
     <cc:Agent>
      <dc:title>Matplotlib v3.11.0, https://matplotlib.org/</dc:title>
     </cc:Agent>
    </dc:creator>
   </cc:Work>
  </rdf:RDF>
 </metadata>
 <defs>
  <style type="text/css">*{stroke-linejoin: round; stroke-linecap: butt}</style>
 </defs>
 <g id="figure_1">
  <g id="patch_1">
   <path d="M 0 265.867005 
L 452.345311 265.867005 
L 452.345311 0 
L 0 0 
L 0 265.867005 
z
" style="fill: none"/>
  </g>
  <g id="axes_1">
   <g id="patch_2">
    <path d="M 65.842812 221.50138 
L 434.122813 221.50138 
L 434.122813 10.82938 
L 65.842812 10.82938 
L 65.842812 221.50138 
z
" style="fill: none"/>
   </g>
   <g id="matplotlib.axis_1">
    <g id="xtick_1">
     <g id="line2d_1">
      <defs>
       <path id="ma40268d360" d="M 0 0 
L 0 3.5 
" style="stroke: #20305f; stroke-width: 0.8"/>
      </defs>
      <g>
       <use xlink:href="#ma40268d360" x="67.95862" y="221.50138" style="fill: #20305f; stroke: #20305f; stroke-width: 0.8"/>
      </g>
     </g>
     <g id="text_1">
      <!-- $\mathdefault{10^{-9}}$ -->
      <g style="fill: #20305f" transform="translate(53.85862 239.78138) scale(0.12 -0.12)">
       <defs>
        <path id="DejaVuSans-14" d="M 794 531 
L 1825 531 
L 1825 4091 
L 703 3866 
L 703 4441 
L 1819 4666 
L 2450 4666 
L 2450 531 
L 3481 531 
L 3481 0 
L 794 0 
L 794 531 
z
" transform="scale(0.015625)"/>
        <path id="DejaVuSans-13" d="M 2034 4250 
Q 1547 4250 1301 3770 
Q 1056 3291 1056 2328 
Q 1056 1369 1301 889 
Q 1547 409 2034 409 
Q 2525 409 2770 889 
Q 3016 1369 3016 2328 
Q 3016 3291 2770 3770 
Q 2525 4250 2034 4250 
z
M 2034 4750 
Q 2819 4750 3233 4129 
Q 3647 3509 3647 2328 
Q 3647 1150 3233 529 
Q 2819 -91 2034 -91 
Q 1250 -91 836 529 
Q 422 1150 422 2328 
Q 422 3509 836 4129 
Q 1250 4750 2034 4750 
z
" transform="scale(0.015625)"/>
        <path id="DejaVuSans-c9c" d="M 678 2272 
L 4684 2272 
L 4684 1741 
L 678 1741 
L 678 2272 
z
" transform="scale(0.015625)"/>
        <path id="DejaVuSans-1c" d="M 703 97 
L 703 672 
Q 941 559 1184 500 
Q 1428 441 1663 441 
Q 2288 441 2617 861 
Q 2947 1281 2994 2138 
Q 2813 1869 2534 1725 
Q 2256 1581 1919 1581 
Q 1219 1581 811 2004 
Q 403 2428 403 3163 
Q 403 3881 828 4315 
Q 1253 4750 1959 4750 
Q 2769 4750 3195 4129 
Q 3622 3509 3622 2328 
Q 3622 1225 3098 567 
Q 2575 -91 1691 -91 
Q 1453 -91 1209 -44 
Q 966 3 703 97 
z
M 1959 2075 
Q 2384 2075 2632 2365 
Q 2881 2656 2881 3163 
Q 2881 3666 2632 3958 
Q 2384 4250 1959 4250 
Q 1534 4250 1286 3958 
Q 1038 3666 1038 3163 
Q 1038 2656 1286 2365 
Q 1534 2075 1959 2075 
z
" transform="scale(0.015625)"/>
       </defs>
       <use xlink:href="#DejaVuSans-14" transform="translate(0 0.746875)"/>
       <use xlink:href="#DejaVuSans-13" transform="translate(63.623047 0.746875)"/>
       <use xlink:href="#DejaVuSans-c9c" transform="translate(128.203125 42.046875) scale(0.7)"/>
       <use xlink:href="#DejaVuSans-1c" transform="translate(186.855469 42.046875) scale(0.7)"/>
      </g>
     </g>
    </g>
    <g id="xtick_2">
     <g id="line2d_2">
      <g>
       <use xlink:href="#ma40268d360" x="113.344457" y="221.50138" style="fill: #20305f; stroke: #20305f; stroke-width: 0.8"/>
      </g>
     </g>
     <g id="text_2">
      <!-- $\mathdefault{10^{-8}}$ -->
      <g style="fill: #20305f" transform="translate(99.244457 239.78138) scale(0.12 -0.12)">
       <defs>
        <path id="DejaVuSans-1b" d="M 2034 2216 
Q 1584 2216 1326 1975 
Q 1069 1734 1069 1313 
Q 1069 891 1326 650 
Q 1584 409 2034 409 
Q 2484 409 2743 651 
Q 3003 894 3003 1313 
Q 3003 1734 2745 1975 
Q 2488 2216 2034 2216 
z
M 1403 2484 
Q 997 2584 770 2862 
Q 544 3141 544 3541 
Q 544 4100 942 4425 
Q 1341 4750 2034 4750 
Q 2731 4750 3128 4425 
Q 3525 4100 3525 3541 
Q 3525 3141 3298 2862 
Q 3072 2584 2669 2484 
Q 3125 2378 3379 2068 
Q 3634 1759 3634 1313 
Q 3634 634 3220 271 
Q 2806 -91 2034 -91 
Q 1263 -91 848 271 
Q 434 634 434 1313 
Q 434 1759 690 2068 
Q 947 2378 1403 2484 
z
M 1172 3481 
Q 1172 3119 1398 2916 
Q 1625 2713 2034 2713 
Q 2441 2713 2670 2916 
Q 2900 3119 2900 3481 
Q 2900 3844 2670 4047 
Q 2441 4250 2034 4250 
Q 1625 4250 1398 4047 
Q 1172 3844 1172 3481 
z
" transform="scale(0.015625)"/>
       </defs>
       <use xlink:href="#DejaVuSans-14" transform="translate(0 0.746875)"/>
       <use xlink:href="#DejaVuSans-13" transform="translate(63.623047 0.746875)"/>
       <use xlink:href="#DejaVuSans-c9c" transform="translate(128.203125 42.046875) scale(0.7)"/>
       <use xlink:href="#DejaVuSans-1b" transform="translate(186.855469 42.046875) scale(0.7)"/>
      </g>
     </g>
    </g>
    <g id="xtick_3">
     <g id="line2d_3">
      <g>
       <use xlink:href="#ma40268d360" x="158.730293" y="221.50138" style="fill: #20305f; stroke: #20305f; stroke-width: 0.8"/>
      </g>
     </g>
     <g id="text_3">
      <!-- $\mathdefault{10^{-7}}$ -->
      <g style="fill: #20305f" transform="translate(144.630293 239.66138) scale(0.12 -0.12)">
       <defs>
        <path id="DejaVuSans-1a" d="M 525 4666 
L 3525 4666 
L 3525 4397 
L 1831 0 
L 1172 0 
L 2766 4134 
L 525 4134 
L 525 4666 
z
" transform="scale(0.015625)"/>
       </defs>
       <use xlink:href="#DejaVuSans-14" transform="translate(0 0.665625)"/>
       <use xlink:href="#DejaVuSans-13" transform="translate(63.623047 0.665625)"/>
       <use xlink:href="#DejaVuSans-c9c" transform="translate(128.203125 41.965625) scale(0.7)"/>
       <use xlink:href="#DejaVuSans-1a" transform="translate(186.855469 41.965625) scale(0.7)"/>
      </g>
     </g>
    </g>
    <g id="xtick_4">
     <g id="line2d_4">
      <g>
       <use xlink:href="#ma40268d360" x="204.116129" y="221.50138" style="fill: #20305f; stroke: #20305f; stroke-width: 0.8"/>
      </g>
     </g>
     <g id="text_4">
      <!-- $\mathdefault{10^{-6}}$ -->
      <g style="fill: #20305f" transform="translate(190.016129 239.78138) scale(0.12 -0.12)">
       <defs>
        <path id="DejaVuSans-19" d="M 2113 2584 
Q 1688 2584 1439 2293 
Q 1191 2003 1191 1497 
Q 1191 994 1439 701 
Q 1688 409 2113 409 
Q 2538 409 2786 701 
Q 3034 994 3034 1497 
Q 3034 2003 2786 2293 
Q 2538 2584 2113 2584 
z
M 3366 4563 
L 3366 3988 
Q 3128 4100 2886 4159 
Q 2644 4219 2406 4219 
Q 1781 4219 1451 3797 
Q 1122 3375 1075 2522 
Q 1259 2794 1537 2939 
Q 1816 3084 2150 3084 
Q 2853 3084 3261 2657 
Q 3669 2231 3669 1497 
Q 3669 778 3244 343 
Q 2819 -91 2113 -91 
Q 1303 -91 875 529 
Q 447 1150 447 2328 
Q 447 3434 972 4092 
Q 1497 4750 2381 4750 
Q 2619 4750 2861 4703 
Q 3103 4656 3366 4563 
z
" transform="scale(0.015625)"/>
       </defs>
       <use xlink:href="#DejaVuSans-14" transform="translate(0 0.746875)"/>
       <use xlink:href="#DejaVuSans-13" transform="translate(63.623047 0.746875)"/>
       <use xlink:href="#DejaVuSans-c9c" transform="translate(128.203125 42.046875) scale(0.7)"/>
       <use xlink:href="#DejaVuSans-19" transform="translate(186.855469 42.046875) scale(0.7)"/>
      </g>
     </g>
    </g>
    <g id="xtick_5">
     <g id="line2d_5">
      <g>
       <use xlink:href="#ma40268d360" x="249.501965" y="221.50138" style="fill: #20305f; stroke: #20305f; stroke-width: 0.8"/>
      </g>
     </g>
     <g id="text_5">
      <!-- $\mathdefault{10^{-5}}$ -->
      <g style="fill: #20305f" transform="translate(235.401965 239.66138) scale(0.12 -0.12)">
       <defs>
        <path id="DejaVuSans-18" d="M 691 4666 
L 3169 4666 
L 3169 4134 
L 1269 4134 
L 1269 2991 
Q 1406 3038 1543 3061 
Q 1681 3084 1819 3084 
Q 2600 3084 3056 2656 
Q 3513 2228 3513 1497 
Q 3513 744 3044 326 
Q 2575 -91 1722 -91 
Q 1428 -91 1123 -41 
Q 819 9 494 109 
L 494 744 
Q 775 591 1075 516 
Q 1375 441 1709 441 
Q 2250 441 2565 725 
Q 2881 1009 2881 1497 
Q 2881 1984 2565 2268 
Q 2250 2553 1709 2553 
Q 1456 2553 1204 2497 
Q 953 2441 691 2322 
L 691 4666 
z
" transform="scale(0.015625)"/>
       </defs>
       <use xlink:href="#DejaVuSans-14" transform="translate(0 0.665625)"/>
       <use xlink:href="#DejaVuSans-13" transform="translate(63.623047 0.665625)"/>
       <use xlink:href="#DejaVuSans-c9c" transform="translate(128.203125 41.965625) scale(0.7)"/>
       <use xlink:href="#DejaVuSans-18" transform="translate(186.855469 41.965625) scale(0.7)"/>
      </g>
     </g>
    </g>
    <g id="xtick_6">
     <g id="line2d_6">
      <g>
       <use xlink:href="#ma40268d360" x="294.887802" y="221.50138" style="fill: #20305f; stroke: #20305f; stroke-width: 0.8"/>
      </g>
     </g>
     <g id="text_6">
      <!-- $\mathdefault{10^{-4}}$ -->
      <g style="fill: #20305f" transform="translate(280.787802 239.66138) scale(0.12 -0.12)">
       <defs>
        <path id="DejaVuSans-17" d="M 2419 4116 
L 825 1625 
L 2419 1625 
L 2419 4116 
z
M 2253 4666 
L 3047 4666 
L 3047 1625 
L 3713 1625 
L 3713 1100 
L 3047 1100 
L 3047 0 
L 2419 0 
L 2419 1100 
L 313 1100 
L 313 1709 
L 2253 4666 
z
" transform="scale(0.015625)"/>
       </defs>
       <use xlink:href="#DejaVuSans-14" transform="translate(0 0.665625)"/>
       <use xlink:href="#DejaVuSans-13" transform="translate(63.623047 0.665625)"/>
       <use xlink:href="#DejaVuSans-c9c" transform="translate(128.203125 41.965625) scale(0.7)"/>
       <use xlink:href="#DejaVuSans-17" transform="translate(186.855469 41.965625) scale(0.7)"/>
      </g>
     </g>
    </g>
    <g id="xtick_7">
     <g id="line2d_7">
      <g>
       <use xlink:href="#ma40268d360" x="340.273638" y="221.50138" style="fill: #20305f; stroke: #20305f; stroke-width: 0.8"/>
      </g>
     </g>
     <g id="text_7">
      <!-- $\mathdefault{10^{-3}}$ -->
      <g style="fill: #20305f" transform="translate(326.173638 239.78138) scale(0.12 -0.12)">
       <defs>
        <path id="DejaVuSans-16" d="M 2597 2516 
Q 3050 2419 3304 2112 
Q 3559 1806 3559 1356 
Q 3559 666 3084 287 
Q 2609 -91 1734 -91 
Q 1441 -91 1130 -33 
Q 819 25 488 141 
L 488 750 
Q 750 597 1062 519 
Q 1375 441 1716 441 
Q 2309 441 2620 675 
Q 2931 909 2931 1356 
Q 2931 1769 2642 2001 
Q 2353 2234 1838 2234 
L 1294 2234 
L 1294 2753 
L 1863 2753 
Q 2328 2753 2575 2939 
Q 2822 3125 2822 3475 
Q 2822 3834 2567 4026 
Q 2313 4219 1838 4219 
Q 1578 4219 1281 4162 
Q 984 4106 628 3988 
L 628 4550 
Q 988 4650 1302 4700 
Q 1616 4750 1894 4750 
Q 2613 4750 3031 4423 
Q 3450 4097 3450 3541 
Q 3450 3153 3228 2886 
Q 3006 2619 2597 2516 
z
" transform="scale(0.015625)"/>
       </defs>
       <use xlink:href="#DejaVuSans-14" transform="translate(0 0.746875)"/>
       <use xlink:href="#DejaVuSans-13" transform="translate(63.623047 0.746875)"/>
       <use xlink:href="#DejaVuSans-c9c" transform="translate(128.203125 42.046875) scale(0.7)"/>
       <use xlink:href="#DejaVuSans-16" transform="translate(186.855469 42.046875) scale(0.7)"/>
      </g>
     </g>
    </g>
    <g id="xtick_8">
     <g id="line2d_8">
      <g>
       <use xlink:href="#ma40268d360" x="385.659474" y="221.50138" style="fill: #20305f; stroke: #20305f; stroke-width: 0.8"/>
      </g>
     </g>
     <g id="text_8">
      <!-- $\mathdefault{10^{-2}}$ -->
      <g style="fill: #20305f" transform="translate(371.559474 239.78138) scale(0.12 -0.12)">
       <defs>
        <path id="DejaVuSans-15" d="M 1228 531 
L 3431 531 
L 3431 0 
L 469 0 
L 469 531 
Q 828 903 1448 1529 
Q 2069 2156 2228 2338 
Q 2531 2678 2651 2914 
Q 2772 3150 2772 3378 
Q 2772 3750 2511 3984 
Q 2250 4219 1831 4219 
Q 1534 4219 1204 4116 
Q 875 4013 500 3803 
L 500 4441 
Q 881 4594 1212 4672 
Q 1544 4750 1819 4750 
Q 2544 4750 2975 4387 
Q 3406 4025 3406 3419 
Q 3406 3131 3298 2873 
Q 3191 2616 2906 2266 
Q 2828 2175 2409 1742 
Q 1991 1309 1228 531 
z
" transform="scale(0.015625)"/>
       </defs>
       <use xlink:href="#DejaVuSans-14" transform="translate(0 0.746875)"/>
       <use xlink:href="#DejaVuSans-13" transform="translate(63.623047 0.746875)"/>
       <use xlink:href="#DejaVuSans-c9c" transform="translate(128.203125 42.046875) scale(0.7)"/>
       <use xlink:href="#DejaVuSans-15" transform="translate(186.855469 42.046875) scale(0.7)"/>
      </g>
     </g>
    </g>
    <g id="xtick_9">
     <g id="line2d_9">
      <g>
       <use xlink:href="#ma40268d360" x="431.045311" y="221.50138" style="fill: #20305f; stroke: #20305f; stroke-width: 0.8"/>
      </g>
     </g>
     <g id="text_9">
      <!-- $\mathdefault{10^{-1}}$ -->
      <g style="fill: #20305f" transform="translate(416.945311 239.66138) scale(0.12 -0.12)">
       <use xlink:href="#DejaVuSans-14" transform="translate(0 0.665625)"/>
       <use xlink:href="#DejaVuSans-13" transform="translate(63.623047 0.665625)"/>
       <use xlink:href="#DejaVuSans-c9c" transform="translate(128.203125 41.965625) scale(0.7)"/>
       <use xlink:href="#DejaVuSans-14" transform="translate(186.855469 41.965625) scale(0.7)"/>
      </g>
     </g>
    </g>
    <g id="xtick_10">
     <g id="line2d_10">
      <defs>
       <path id="m7915a0e4ee" d="M 0 0 
L 0 2 
" style="stroke: #20305f; stroke-width: 0.6"/>
      </defs>
      <g>
       <use xlink:href="#m7915a0e4ee" x="65.881878" y="221.50138" style="fill: #20305f; stroke: #20305f; stroke-width: 0.6"/>
      </g>
     </g>
    </g>
    <g id="xtick_11">
     <g id="line2d_11">
      <g>
       <use xlink:href="#m7915a0e4ee" x="81.621118" y="221.50138" style="fill: #20305f; stroke: #20305f; stroke-width: 0.6"/>
      </g>
     </g>
    </g>
    <g id="xtick_12">
     <g id="line2d_12">
      <g>
       <use xlink:href="#m7915a0e4ee" x="89.613167" y="221.50138" style="fill: #20305f; stroke: #20305f; stroke-width: 0.6"/>
      </g>
     </g>
    </g>
    <g id="xtick_13">
     <g id="line2d_13">
      <g>
       <use xlink:href="#m7915a0e4ee" x="95.283617" y="221.50138" style="fill: #20305f; stroke: #20305f; stroke-width: 0.6"/>
      </g>
     </g>
    </g>
    <g id="xtick_14">
     <g id="line2d_14">
      <g>
       <use xlink:href="#m7915a0e4ee" x="99.681959" y="221.50138" style="fill: #20305f; stroke: #20305f; stroke-width: 0.6"/>
      </g>
     </g>
    </g>
    <g id="xtick_15">
     <g id="line2d_15">
      <g>
       <use xlink:href="#m7915a0e4ee" x="103.275666" y="221.50138" style="fill: #20305f; stroke: #20305f; stroke-width: 0.6"/>
      </g>
     </g>
    </g>
    <g id="xtick_16">
     <g id="line2d_16">
      <g>
       <use xlink:href="#m7915a0e4ee" x="106.314102" y="221.50138" style="fill: #20305f; stroke: #20305f; stroke-width: 0.6"/>
      </g>
     </g>
    </g>
    <g id="xtick_17">
     <g id="line2d_17">
      <g>
       <use xlink:href="#m7915a0e4ee" x="108.946115" y="221.50138" style="fill: #20305f; stroke: #20305f; stroke-width: 0.6"/>
      </g>
     </g>
    </g>
    <g id="xtick_18">
     <g id="line2d_18">
      <g>
       <use xlink:href="#m7915a0e4ee" x="111.267715" y="221.50138" style="fill: #20305f; stroke: #20305f; stroke-width: 0.6"/>
      </g>
     </g>
    </g>
    <g id="xtick_19">
     <g id="line2d_19">
      <g>
       <use xlink:href="#m7915a0e4ee" x="127.006955" y="221.50138" style="fill: #20305f; stroke: #20305f; stroke-width: 0.6"/>
      </g>
     </g>
    </g>
    <g id="xtick_20">
     <g id="line2d_20">
      <g>
       <use xlink:href="#m7915a0e4ee" x="134.999004" y="221.50138" style="fill: #20305f; stroke: #20305f; stroke-width: 0.6"/>
      </g>
     </g>
    </g>
    <g id="xtick_21">
     <g id="line2d_21">
      <g>
       <use xlink:href="#m7915a0e4ee" x="140.669453" y="221.50138" style="fill: #20305f; stroke: #20305f; stroke-width: 0.6"/>
      </g>
     </g>
    </g>
    <g id="xtick_22">
     <g id="line2d_22">
      <g>
       <use xlink:href="#m7915a0e4ee" x="145.067795" y="221.50138" style="fill: #20305f; stroke: #20305f; stroke-width: 0.6"/>
      </g>
     </g>
    </g>
    <g id="xtick_23">
     <g id="line2d_23">
      <g>
       <use xlink:href="#m7915a0e4ee" x="148.661502" y="221.50138" style="fill: #20305f; stroke: #20305f; stroke-width: 0.6"/>
      </g>
     </g>
    </g>
    <g id="xtick_24">
     <g id="line2d_24">
      <g>
       <use xlink:href="#m7915a0e4ee" x="151.699938" y="221.50138" style="fill: #20305f; stroke: #20305f; stroke-width: 0.6"/>
      </g>
     </g>
    </g>
    <g id="xtick_25">
     <g id="line2d_25">
      <g>
       <use xlink:href="#m7915a0e4ee" x="154.331951" y="221.50138" style="fill: #20305f; stroke: #20305f; stroke-width: 0.6"/>
      </g>
     </g>
    </g>
    <g id="xtick_26">
     <g id="line2d_26">
      <g>
       <use xlink:href="#m7915a0e4ee" x="156.653551" y="221.50138" style="fill: #20305f; stroke: #20305f; stroke-width: 0.6"/>
      </g>
     </g>
    </g>
    <g id="xtick_27">
     <g id="line2d_27">
      <g>
       <use xlink:href="#m7915a0e4ee" x="172.392791" y="221.50138" style="fill: #20305f; stroke: #20305f; stroke-width: 0.6"/>
      </g>
     </g>
    </g>
    <g id="xtick_28">
     <g id="line2d_28">
      <g>
       <use xlink:href="#m7915a0e4ee" x="180.38484" y="221.50138" style="fill: #20305f; stroke: #20305f; stroke-width: 0.6"/>
      </g>
     </g>
    </g>
    <g id="xtick_29">
     <g id="line2d_29">
      <g>
       <use xlink:href="#m7915a0e4ee" x="186.055289" y="221.50138" style="fill: #20305f; stroke: #20305f; stroke-width: 0.6"/>
      </g>
     </g>
    </g>
    <g id="xtick_30">
     <g id="line2d_30">
      <g>
       <use xlink:href="#m7915a0e4ee" x="190.453631" y="221.50138" style="fill: #20305f; stroke: #20305f; stroke-width: 0.6"/>
      </g>
     </g>
    </g>
    <g id="xtick_31">
     <g id="line2d_31">
      <g>
       <use xlink:href="#m7915a0e4ee" x="194.047338" y="221.50138" style="fill: #20305f; stroke: #20305f; stroke-width: 0.6"/>
      </g>
     </g>
    </g>
    <g id="xtick_32">
     <g id="line2d_32">
      <g>
       <use xlink:href="#m7915a0e4ee" x="197.085774" y="221.50138" style="fill: #20305f; stroke: #20305f; stroke-width: 0.6"/>
      </g>
     </g>
    </g>
    <g id="xtick_33">
     <g id="line2d_33">
      <g>
       <use xlink:href="#m7915a0e4ee" x="199.717787" y="221.50138" style="fill: #20305f; stroke: #20305f; stroke-width: 0.6"/>
      </g>
     </g>
    </g>
    <g id="xtick_34">
     <g id="line2d_34">
      <g>
       <use xlink:href="#m7915a0e4ee" x="202.039387" y="221.50138" style="fill: #20305f; stroke: #20305f; stroke-width: 0.6"/>
      </g>
     </g>
    </g>
    <g id="xtick_35">
     <g id="line2d_35">
      <g>
       <use xlink:href="#m7915a0e4ee" x="217.778627" y="221.50138" style="fill: #20305f; stroke: #20305f; stroke-width: 0.6"/>
      </g>
     </g>
    </g>
    <g id="xtick_36">
     <g id="line2d_36">
      <g>
       <use xlink:href="#m7915a0e4ee" x="225.770676" y="221.50138" style="fill: #20305f; stroke: #20305f; stroke-width: 0.6"/>
      </g>
     </g>
    </g>
    <g id="xtick_37">
     <g id="line2d_37">
      <g>
       <use xlink:href="#m7915a0e4ee" x="231.441125" y="221.50138" style="fill: #20305f; stroke: #20305f; stroke-width: 0.6"/>
      </g>
     </g>
    </g>
    <g id="xtick_38">
     <g id="line2d_38">
      <g>
       <use xlink:href="#m7915a0e4ee" x="235.839467" y="221.50138" style="fill: #20305f; stroke: #20305f; stroke-width: 0.6"/>
      </g>
     </g>
    </g>
    <g id="xtick_39">
     <g id="line2d_39">
      <g>
       <use xlink:href="#m7915a0e4ee" x="239.433174" y="221.50138" style="fill: #20305f; stroke: #20305f; stroke-width: 0.6"/>
      </g>
     </g>
    </g>
    <g id="xtick_40">
     <g id="line2d_40">
      <g>
       <use xlink:href="#m7915a0e4ee" x="242.47161" y="221.50138" style="fill: #20305f; stroke: #20305f; stroke-width: 0.6"/>
      </g>
     </g>
    </g>
    <g id="xtick_41">
     <g id="line2d_41">
      <g>
       <use xlink:href="#m7915a0e4ee" x="245.103623" y="221.50138" style="fill: #20305f; stroke: #20305f; stroke-width: 0.6"/>
      </g>
     </g>
    </g>
    <g id="xtick_42">
     <g id="line2d_42">
      <g>
       <use xlink:href="#m7915a0e4ee" x="247.425223" y="221.50138" style="fill: #20305f; stroke: #20305f; stroke-width: 0.6"/>
      </g>
     </g>
    </g>
    <g id="xtick_43">
     <g id="line2d_43">
      <g>
       <use xlink:href="#m7915a0e4ee" x="263.164464" y="221.50138" style="fill: #20305f; stroke: #20305f; stroke-width: 0.6"/>
      </g>
     </g>
    </g>
    <g id="xtick_44">
     <g id="line2d_44">
      <g>
       <use xlink:href="#m7915a0e4ee" x="271.156513" y="221.50138" style="fill: #20305f; stroke: #20305f; stroke-width: 0.6"/>
      </g>
     </g>
    </g>
    <g id="xtick_45">
     <g id="line2d_45">
      <g>
       <use xlink:href="#m7915a0e4ee" x="276.826962" y="221.50138" style="fill: #20305f; stroke: #20305f; stroke-width: 0.6"/>
      </g>
     </g>
    </g>
    <g id="xtick_46">
     <g id="line2d_46">
      <g>
       <use xlink:href="#m7915a0e4ee" x="281.225304" y="221.50138" style="fill: #20305f; stroke: #20305f; stroke-width: 0.6"/>
      </g>
     </g>
    </g>
    <g id="xtick_47">
     <g id="line2d_47">
      <g>
       <use xlink:href="#m7915a0e4ee" x="284.819011" y="221.50138" style="fill: #20305f; stroke: #20305f; stroke-width: 0.6"/>
      </g>
     </g>
    </g>
    <g id="xtick_48">
     <g id="line2d_48">
      <g>
       <use xlink:href="#m7915a0e4ee" x="287.857447" y="221.50138" style="fill: #20305f; stroke: #20305f; stroke-width: 0.6"/>
      </g>
     </g>
    </g>
    <g id="xtick_49">
     <g id="line2d_49">
      <g>
       <use xlink:href="#m7915a0e4ee" x="290.48946" y="221.50138" style="fill: #20305f; stroke: #20305f; stroke-width: 0.6"/>
      </g>
     </g>
    </g>
    <g id="xtick_50">
     <g id="line2d_50">
      <g>
       <use xlink:href="#m7915a0e4ee" x="292.81106" y="221.50138" style="fill: #20305f; stroke: #20305f; stroke-width: 0.6"/>
      </g>
     </g>
    </g>
    <g id="xtick_51">
     <g id="line2d_51">
      <g>
       <use xlink:href="#m7915a0e4ee" x="308.5503" y="221.50138" style="fill: #20305f; stroke: #20305f; stroke-width: 0.6"/>
      </g>
     </g>
    </g>
    <g id="xtick_52">
     <g id="line2d_52">
      <g>
       <use xlink:href="#m7915a0e4ee" x="316.542349" y="221.50138" style="fill: #20305f; stroke: #20305f; stroke-width: 0.6"/>
      </g>
     </g>
    </g>
    <g id="xtick_53">
     <g id="line2d_53">
      <g>
       <use xlink:href="#m7915a0e4ee" x="322.212798" y="221.50138" style="fill: #20305f; stroke: #20305f; stroke-width: 0.6"/>
      </g>
     </g>
    </g>
    <g id="xtick_54">
     <g id="line2d_54">
      <g>
       <use xlink:href="#m7915a0e4ee" x="326.61114" y="221.50138" style="fill: #20305f; stroke: #20305f; stroke-width: 0.6"/>
      </g>
     </g>
    </g>
    <g id="xtick_55">
     <g id="line2d_55">
      <g>
       <use xlink:href="#m7915a0e4ee" x="330.204847" y="221.50138" style="fill: #20305f; stroke: #20305f; stroke-width: 0.6"/>
      </g>
     </g>
    </g>
    <g id="xtick_56">
     <g id="line2d_56">
      <g>
       <use xlink:href="#m7915a0e4ee" x="333.243283" y="221.50138" style="fill: #20305f; stroke: #20305f; stroke-width: 0.6"/>
      </g>
     </g>
    </g>
    <g id="xtick_57">
     <g id="line2d_57">
      <g>
       <use xlink:href="#m7915a0e4ee" x="335.875296" y="221.50138" style="fill: #20305f; stroke: #20305f; stroke-width: 0.6"/>
      </g>
     </g>
    </g>
    <g id="xtick_58">
     <g id="line2d_58">
      <g>
       <use xlink:href="#m7915a0e4ee" x="338.196896" y="221.50138" style="fill: #20305f; stroke: #20305f; stroke-width: 0.6"/>
      </g>
     </g>
    </g>
    <g id="xtick_59">
     <g id="line2d_59">
      <g>
       <use xlink:href="#m7915a0e4ee" x="353.936136" y="221.50138" style="fill: #20305f; stroke: #20305f; stroke-width: 0.6"/>
      </g>
     </g>
    </g>
    <g id="xtick_60">
     <g id="line2d_60">
      <g>
       <use xlink:href="#m7915a0e4ee" x="361.928185" y="221.50138" style="fill: #20305f; stroke: #20305f; stroke-width: 0.6"/>
      </g>
     </g>
    </g>
    <g id="xtick_61">
     <g id="line2d_61">
      <g>
       <use xlink:href="#m7915a0e4ee" x="367.598634" y="221.50138" style="fill: #20305f; stroke: #20305f; stroke-width: 0.6"/>
      </g>
     </g>
    </g>
    <g id="xtick_62">
     <g id="line2d_62">
      <g>
       <use xlink:href="#m7915a0e4ee" x="371.996976" y="221.50138" style="fill: #20305f; stroke: #20305f; stroke-width: 0.6"/>
      </g>
     </g>
    </g>
    <g id="xtick_63">
     <g id="line2d_63">
      <g>
       <use xlink:href="#m7915a0e4ee" x="375.590683" y="221.50138" style="fill: #20305f; stroke: #20305f; stroke-width: 0.6"/>
      </g>
     </g>
    </g>
    <g id="xtick_64">
     <g id="line2d_64">
      <g>
       <use xlink:href="#m7915a0e4ee" x="378.629119" y="221.50138" style="fill: #20305f; stroke: #20305f; stroke-width: 0.6"/>
      </g>
     </g>
    </g>
    <g id="xtick_65">
     <g id="line2d_65">
      <g>
       <use xlink:href="#m7915a0e4ee" x="381.261132" y="221.50138" style="fill: #20305f; stroke: #20305f; stroke-width: 0.6"/>
      </g>
     </g>
    </g>
    <g id="xtick_66">
     <g id="line2d_66">
      <g>
       <use xlink:href="#m7915a0e4ee" x="383.582732" y="221.50138" style="fill: #20305f; stroke: #20305f; stroke-width: 0.6"/>
      </g>
     </g>
    </g>
    <g id="xtick_67">
     <g id="line2d_67">
      <g>
       <use xlink:href="#m7915a0e4ee" x="399.321972" y="221.50138" style="fill: #20305f; stroke: #20305f; stroke-width: 0.6"/>
      </g>
     </g>
    </g>
    <g id="xtick_68">
     <g id="line2d_68">
      <g>
       <use xlink:href="#m7915a0e4ee" x="407.314021" y="221.50138" style="fill: #20305f; stroke: #20305f; stroke-width: 0.6"/>
      </g>
     </g>
    </g>
    <g id="xtick_69">
     <g id="line2d_69">
      <g>
       <use xlink:href="#m7915a0e4ee" x="412.984471" y="221.50138" style="fill: #20305f; stroke: #20305f; stroke-width: 0.6"/>
      </g>
     </g>
    </g>
    <g id="xtick_70">
     <g id="line2d_70">
      <g>
       <use xlink:href="#m7915a0e4ee" x="417.382812" y="221.50138" style="fill: #20305f; stroke: #20305f; stroke-width: 0.6"/>
      </g>
     </g>
    </g>
    <g id="xtick_71">
     <g id="line2d_71">
      <g>
       <use xlink:href="#m7915a0e4ee" x="420.97652" y="221.50138" style="fill: #20305f; stroke: #20305f; stroke-width: 0.6"/>
      </g>
     </g>
    </g>
    <g id="xtick_72">
     <g id="line2d_72">
      <g>
       <use xlink:href="#m7915a0e4ee" x="424.014956" y="221.50138" style="fill: #20305f; stroke: #20305f; stroke-width: 0.6"/>
      </g>
     </g>
    </g>
    <g id="xtick_73">
     <g id="line2d_73">
      <g>
       <use xlink:href="#m7915a0e4ee" x="426.646969" y="221.50138" style="fill: #20305f; stroke: #20305f; stroke-width: 0.6"/>
      </g>
     </g>
    </g>
    <g id="xtick_74">
     <g id="line2d_74">
      <g>
       <use xlink:href="#m7915a0e4ee" x="428.968569" y="221.50138" style="fill: #20305f; stroke: #20305f; stroke-width: 0.6"/>
      </g>
     </g>
    </g>
    <g id="text_10">
     <!-- $f$ [Hz] -->
     <g style="fill: #20305f" transform="translate(233.602813 255.784192) scale(0.12 -0.12)">
      <defs>
       <path id="DejaVuSans-Oblique-49" d="M 3059 4863 
L 2969 4384 
L 2419 4384 
Q 2106 4384 1964 4261 
Q 1822 4138 1753 3809 
L 1691 3500 
L 2638 3500 
L 2553 3053 
L 1606 3053 
L 1013 0 
L 434 0 
L 1031 3053 
L 481 3053 
L 563 3500 
L 1113 3500 
L 1159 3744 
Q 1278 4363 1576 4613 
Q 1875 4863 2516 4863 
L 3059 4863 
z
" transform="scale(0.015625)"/>
       <path id="DejaVuSans-3" transform="scale(0.015625)"/>
       <path id="DejaVuSans-3e" d="M 550 4863 
L 1875 4863 
L 1875 4416 
L 1125 4416 
L 1125 -397 
L 1875 -397 
L 1875 -844 
L 550 -844 
L 550 4863 
z
" transform="scale(0.015625)"/>
       <path id="DejaVuSans-2b" d="M 628 4666 
L 1259 4666 
L 1259 2753 
L 3553 2753 
L 3553 4666 
L 4184 4666 
L 4184 0 
L 3553 0 
L 3553 2222 
L 1259 2222 
L 1259 0 
L 628 0 
L 628 4666 
z
" transform="scale(0.015625)"/>
       <path id="DejaVuSans-5d" d="M 353 3500 
L 3084 3500 
L 3084 2975 
L 922 459 
L 3084 459 
L 3084 0 
L 275 0 
L 275 525 
L 2438 3041 
L 353 3041 
L 353 3500 
z
" transform="scale(0.015625)"/>
       <path id="DejaVuSans-40" d="M 1947 4863 
L 1947 -844 
L 622 -844 
L 622 -397 
L 1369 -397 
L 1369 4416 
L 622 4416 
L 622 4863 
L 1947 4863 
z
" transform="scale(0.015625)"/>
      </defs>
      <use xlink:href="#DejaVuSans-Oblique-49" transform="translate(0 0.015625)"/>
      <use xlink:href="#DejaVuSans-3" transform="translate(35.205078 0.015625)"/>
      <use xlink:href="#DejaVuSans-3e" transform="translate(66.992188 0.015625)"/>
      <use xlink:href="#DejaVuSans-2b" transform="translate(106.005859 0.015625)"/>
      <use xlink:href="#DejaVuSans-5d" transform="translate(181.201172 0.015625)"/>
      <use xlink:href="#DejaVuSans-40" transform="translate(233.691406 0.015625)"/>
     </g>
    </g>
   </g>
   <g id="matplotlib.axis_2">
    <g id="ytick_1">
     <g id="line2d_75">
      <defs>
       <path id="m04cc478c1a" d="M 0 0 
L -3.5 0 
" style="stroke: #20305f; stroke-width: 0.8"/>
      </defs>
      <g>
       <use xlink:href="#m04cc478c1a" x="65.842812" y="217.904607" style="fill: #20305f; stroke: #20305f; stroke-width: 0.8"/>
      </g>
     </g>
     <g id="text_11">
      <!-- $\mathdefault{10^{-26}}$ -->
      <g style="fill: #20305f" transform="translate(25.362812 223.544607) scale(0.12 -0.12)">
       <use xlink:href="#DejaVuSans-14" transform="translate(0 0.746875)"/>
       <use xlink:href="#DejaVuSans-13" transform="translate(63.623047 0.746875)"/>
       <use xlink:href="#DejaVuSans-c9c" transform="translate(128.203125 42.046875) scale(0.7)"/>
       <use xlink:href="#DejaVuSans-15" transform="translate(186.855469 42.046875) scale(0.7)"/>
       <use xlink:href="#DejaVuSans-19" transform="translate(231.391602 42.046875) scale(0.7)"/>
      </g>
     </g>
    </g>
    <g id="ytick_2">
     <g id="line2d_76">
      <g>
       <use xlink:href="#m04cc478c1a" x="65.842812" y="183.727172" style="fill: #20305f; stroke: #20305f; stroke-width: 0.8"/>
      </g>
     </g>
     <g id="text_12">
      <!-- $\mathdefault{10^{-23}}$ -->
      <g style="fill: #20305f" transform="translate(25.362812 189.367172) scale(0.12 -0.12)">
       <use xlink:href="#DejaVuSans-14" transform="translate(0 0.746875)"/>
       <use xlink:href="#DejaVuSans-13" transform="translate(63.623047 0.746875)"/>
       <use xlink:href="#DejaVuSans-c9c" transform="translate(128.203125 42.046875) scale(0.7)"/>
       <use xlink:href="#DejaVuSans-15" transform="translate(186.855469 42.046875) scale(0.7)"/>
       <use xlink:href="#DejaVuSans-16" transform="translate(231.391602 42.046875) scale(0.7)"/>
      </g>
     </g>
    </g>
    <g id="ytick_3">
     <g id="line2d_77">
      <g>
       <use xlink:href="#m04cc478c1a" x="65.842812" y="149.549738" style="fill: #20305f; stroke: #20305f; stroke-width: 0.8"/>
      </g>
     </g>
     <g id="text_13">
      <!-- $\mathdefault{10^{-20}}$ -->
      <g style="fill: #20305f" transform="translate(25.362812 155.189738) scale(0.12 -0.12)">
       <use xlink:href="#DejaVuSans-14" transform="translate(0 0.746875)"/>
       <use xlink:href="#DejaVuSans-13" transform="translate(63.623047 0.746875)"/>
       <use xlink:href="#DejaVuSans-c9c" transform="translate(128.203125 42.046875) scale(0.7)"/>
       <use xlink:href="#DejaVuSans-15" transform="translate(186.855469 42.046875) scale(0.7)"/>
       <use xlink:href="#DejaVuSans-13" transform="translate(231.391602 42.046875) scale(0.7)"/>
      </g>
     </g>
    </g>
    <g id="ytick_4">
     <g id="line2d_78">
      <g>
       <use xlink:href="#m04cc478c1a" x="65.842812" y="115.372303" style="fill: #20305f; stroke: #20305f; stroke-width: 0.8"/>
      </g>
     </g>
     <g id="text_14">
      <!-- $\mathdefault{10^{-17}}$ -->
      <g style="fill: #20305f" transform="translate(25.362812 120.952303) scale(0.12 -0.12)">
       <use xlink:href="#DejaVuSans-14" transform="translate(0 0.665625)"/>
       <use xlink:href="#DejaVuSans-13" transform="translate(63.623047 0.665625)"/>
       <use xlink:href="#DejaVuSans-c9c" transform="translate(128.203125 41.965625) scale(0.7)"/>
       <use xlink:href="#DejaVuSans-14" transform="translate(186.855469 41.965625) scale(0.7)"/>
       <use xlink:href="#DejaVuSans-1a" transform="translate(231.391602 41.965625) scale(0.7)"/>
      </g>
     </g>
    </g>
    <g id="ytick_5">
     <g id="line2d_79">
      <g>
       <use xlink:href="#m04cc478c1a" x="65.842812" y="81.194869" style="fill: #20305f; stroke: #20305f; stroke-width: 0.8"/>
      </g>
     </g>
     <g id="text_15">
      <!-- $\mathdefault{10^{-14}}$ -->
      <g style="fill: #20305f" transform="translate(25.362812 86.774869) scale(0.12 -0.12)">
       <use xlink:href="#DejaVuSans-14" transform="translate(0 0.665625)"/>
       <use xlink:href="#DejaVuSans-13" transform="translate(63.623047 0.665625)"/>
       <use xlink:href="#DejaVuSans-c9c" transform="translate(128.203125 41.965625) scale(0.7)"/>
       <use xlink:href="#DejaVuSans-14" transform="translate(186.855469 41.965625) scale(0.7)"/>
       <use xlink:href="#DejaVuSans-17" transform="translate(231.391602 41.965625) scale(0.7)"/>
      </g>
     </g>
    </g>
    <g id="ytick_6">
     <g id="line2d_80">
      <g>
       <use xlink:href="#m04cc478c1a" x="65.842812" y="47.017434" style="fill: #20305f; stroke: #20305f; stroke-width: 0.8"/>
      </g>
     </g>
     <g id="text_16">
      <!-- $\mathdefault{10^{-11}}$ -->
      <g style="fill: #20305f" transform="translate(25.362812 52.597434) scale(0.12 -0.12)">
       <use xlink:href="#DejaVuSans-14" transform="translate(0 0.665625)"/>
       <use xlink:href="#DejaVuSans-13" transform="translate(63.623047 0.665625)"/>
       <use xlink:href="#DejaVuSans-c9c" transform="translate(128.203125 41.965625) scale(0.7)"/>
       <use xlink:href="#DejaVuSans-14" transform="translate(186.855469 41.965625) scale(0.7)"/>
       <use xlink:href="#DejaVuSans-14" transform="translate(231.391602 41.965625) scale(0.7)"/>
      </g>
     </g>
    </g>
    <g id="ytick_7">
     <g id="line2d_81">
      <g>
       <use xlink:href="#m04cc478c1a" x="65.842812" y="12.84" style="fill: #20305f; stroke: #20305f; stroke-width: 0.8"/>
      </g>
     </g>
     <g id="text_17">
      <!-- $\mathdefault{10^{-8}}$ -->
      <g style="fill: #20305f" transform="translate(30.642812 18.48) scale(0.12 -0.12)">
       <use xlink:href="#DejaVuSans-14" transform="translate(0 0.746875)"/>
       <use xlink:href="#DejaVuSans-13" transform="translate(63.623047 0.746875)"/>
       <use xlink:href="#DejaVuSans-c9c" transform="translate(128.203125 42.046875) scale(0.7)"/>
       <use xlink:href="#DejaVuSans-1b" transform="translate(186.855469 42.046875) scale(0.7)"/>
      </g>
     </g>
    </g>
    <g id="text_18">
     <!-- $\Omega_{\mathrm{GW}}\,h^2$ -->
     <g style="fill: #20305f" transform="translate(18.48 136.44538) rotate(-90) scale(0.12 -0.12)">
      <defs>
       <path id="DejaVuSans-33d" d="M 4647 556 
L 4647 0 
L 2772 0 
L 2772 556 
Q 3325 859 3634 1378 
Q 3944 1897 3944 2528 
Q 3944 3278 3531 3731 
Q 3119 4184 2444 4184 
Q 1769 4184 1355 3729 
Q 941 3275 941 2528 
Q 941 1897 1250 1378 
Q 1563 859 2119 556 
L 2119 0 
L 244 0 
L 244 556 
L 1241 556 
Q 747 991 519 1456 
Q 294 1922 294 2497 
Q 294 3491 894 4106 
Q 1491 4722 2444 4722 
Q 3391 4722 3994 4106 
Q 4594 3494 4594 2528 
Q 4594 1922 4372 1459 
Q 4150 997 3647 556 
L 4647 556 
z
" transform="scale(0.015625)"/>
       <path id="DejaVuSans-2a" d="M 3809 666 
L 3809 1919 
L 2778 1919 
L 2778 2438 
L 4434 2438 
L 4434 434 
Q 4069 175 3628 42 
Q 3188 -91 2688 -91 
Q 1594 -91 976 548 
Q 359 1188 359 2328 
Q 359 3472 976 4111 
Q 1594 4750 2688 4750 
Q 3144 4750 3555 4637 
Q 3966 4525 4313 4306 
L 4313 3634 
Q 3963 3931 3569 4081 
Q 3175 4231 2741 4231 
Q 1884 4231 1454 3753 
Q 1025 3275 1025 2328 
Q 1025 1384 1454 906 
Q 1884 428 2741 428 
Q 3075 428 3337 486 
Q 3600 544 3809 666 
z
" transform="scale(0.015625)"/>
       <path id="DejaVuSans-3a" d="M 213 4666 
L 850 4666 
L 1831 722 
L 2809 4666 
L 3519 4666 
L 4500 722 
L 5478 4666 
L 6119 4666 
L 4947 0 
L 4153 0 
L 3169 4050 
L 2175 0 
L 1381 0 
L 213 4666 
z
" transform="scale(0.015625)"/>
       <path id="DejaVuSans-Oblique-4b" d="M 3566 2113 
L 3156 0 
L 2578 0 
L 2988 2091 
Q 3016 2238 3031 2350 
Q 3047 2463 3047 2528 
Q 3047 2791 2881 2937 
Q 2716 3084 2419 3084 
Q 1956 3084 1617 2771 
Q 1278 2459 1178 1941 
L 800 0 
L 225 0 
L 1172 4863 
L 1747 4863 
L 1375 2950 
Q 1594 3244 1934 3414 
Q 2275 3584 2650 3584 
Q 3113 3584 3367 3334 
Q 3622 3084 3622 2631 
Q 3622 2519 3608 2391 
Q 3594 2263 3566 2113 
z
" transform="scale(0.015625)"/>
      </defs>
      <use xlink:href="#DejaVuSans-33d" transform="translate(0 0.746875)"/>
      <use xlink:href="#DejaVuSans-2a" transform="translate(77.373047 -14.253076) scale(0.7)"/>
      <use xlink:href="#DejaVuSans-3a" transform="translate(131.616211 -14.253076) scale(0.7)"/>
      <use xlink:href="#DejaVuSans-Oblique-4b" transform="translate(219.800129 0.746875)"/>
      <use xlink:href="#DejaVuSans-15" transform="translate(290.626744 42.046875) scale(0.7)"/>
     </g>
    </g>
   </g>
   <g id="line2d_82">
    <path d="M 82.582813 207.046208 
L 116.158744 183.211322 
L 144.938113 163.041751 
L 169.880234 145.828373 
L 190.985105 131.527246 
L 209.212039 119.439274 
L 224.561036 109.510769 
L 237.991408 101.068195 
L 250.462469 93.490342 
L 261.014904 87.324717 
L 270.608027 81.959538 
L 279.241838 77.363371 
L 287.875649 73.023479 
L 295.550148 69.409075 
L 303.224646 66.045734 
L 310.899145 62.946909 
L 318.573643 60.113252 
L 326.248142 57.528502 
L 334.881953 54.876371 
L 344.475076 52.172478 
L 357.905449 48.613108 
L 359.824073 48.31442 
L 362.70201 47.976865 
L 363.661323 47.819666 
L 364.620635 47.486552 
L 365.579947 47.013453 
L 366.539259 46.363497 
L 368.457884 44.382313 
L 371.335821 39.952719 
L 375.17307 33.511843 
L 380.928944 23.766173 
L 381.888257 22.472662 
L 382.847569 21.472216 
L 383.806881 20.710005 
L 384.766194 20.40538 
L 385.725506 20.939019 
L 386.684818 22.516453 
L 387.644131 71.633838 
L 388.603443 76.916213 
L 390.522068 81.575083 
L 392.440692 90.302077 
L 394.359317 104.383592 
L 395.318629 115.368579 
L 396.277941 128.946763 
L 397.237254 149.883408 
L 398.196566 211.92538 
L 398.201313 266.867005 
L 398.201313 266.867005 
" clip-path="url(#pb484aedd69)" style="fill: none; stroke: #2a6c9c; stroke-width: 1.5; stroke-linecap: square"/>
   </g>
   <g id="patch_3">
    <path d="M 65.842812 221.50138 
L 65.842812 10.82938 
" style="fill: none; stroke: #20305f; stroke-width: 0.8; stroke-linejoin: miter; stroke-linecap: square"/>
   </g>
   <g id="patch_4">
    <path d="M 65.842812 221.50138 
L 434.122812 221.50138 
" style="fill: none; stroke: #20305f; stroke-width: 0.8; stroke-linejoin: miter; stroke-linecap: square"/>
   </g>
  </g>
 </g>
 <defs>
  <clipPath id="pb484aedd69">
   <rect x="65.842812" y="10.82938" width="368.28" height="210.672"/>
  </clipPath>
 </defs>
</svg>
